<svg id="레이어_1" data-name="레이어 1" xmlns="http://www.w3.org/2000/svg" viewBox="0 0 235.43 120.52"><defs><style>.cls-1{fill:#040000;}</style></defs><title>logo</title><path class="cls-1" d="M215.67,336h10.79v63.8H215.67V381.78L210,388.9c-5.54-3.24-9.06-8.42-11.36-14.6-2.16,6.83-5.83,12.66-11.44,16.18l-6.83-8.42c10.21-6.55,12.59-18.56,12.59-29.64v-1.8h-9.71v-9.28h29.71v9.28h-8.7v1.8c0,10.65,2.16,21.44,11.44,27.41V366.89h-7.26v-9.28h7.26Zm24.67-.86v67.4h-11v-67.4Z" transform="translate(-180.36 -335.1)"/><path class="cls-1" d="M302.21,380.92h-25v21.87H265.52V380.92H241.07v-9.14h61.14Zm-58.55-21.08c14.1-1.58,19.64-7.26,20.86-12.52h-18.2v-9.06h50.42v9.06H278.83c1.22,5.25,6.76,10.93,20.86,12.52l-4.17,9.06c-12.23-1.51-19.92-6.11-23.88-12.44-4,6.33-11.58,10.93-23.81,12.44Z" transform="translate(-180.36 -335.1)"/><path class="cls-1" d="M361.12,386.46v9.28H300v-9.28h20.5V371h11.65v15.46Zm-16.9-29.85c.14-2.59.22-5,.22-7.19H306.67v-9.14h49.27v5.61a137.47,137.47,0,0,1-3.24,33l-11.44-1.22c1-4.46,1.65-8.56,2.16-12.23l-37.48,1.94-1.37-9.71Z" transform="translate(-180.36 -335.1)"/><path class="cls-1" d="M400.54,370.2c-8.27,1.73-16.47,2-31.87,2h-6V340.06h32.15v9.13H374.21V363c11.44-.07,18.13-.5,25.25-2Zm15.25,19.13c0,8.56-9.06,13.52-23.38,13.52s-23.31-5-23.31-13.52,9.06-13.52,23.31-13.52S415.79,380.78,415.79,389.34Zm-11.58,0c0-3.31-3.81-4.6-11.8-4.6s-11.72,1.29-11.72,4.6S384.5,394,392.41,394,404.21,392.64,404.21,389.34Zm11.29-14.53H403.85V335.1H415.5Z" transform="translate(-180.36 -335.1)"/><path class="cls-1" d="M207.86,403h8.5v50.22h-8.5V428.58h-3.51v14.68H182.87V406.87h8.56v11.79h4.48V406.87h8.45v14.4h3.51Zm-12,22.73h-4.48v10.32h4.48Zm31.63-23.52v53.17h-8.67V402.22Z" transform="translate(-180.36 -335.1)"/><path class="cls-1" d="M257.81,425c0,11.9-6.07,19.27-14.23,19.27s-14.23-7.37-14.23-19.27,6.07-19.27,14.23-19.27S257.81,413,257.81,425Zm-19.67,0c0,7.48,2.15,10.94,5.44,10.94S249,432.43,249,425,246.87,414,243.58,414,238.14,417.47,238.14,425Zm34.41-22.84v53.51h-9.18V402.11Z" transform="translate(-180.36 -335.1)"/><path class="cls-1" d="M322.72,442v7.37H274.59V442Zm-5.1-7.94c-9.69-1.76-15.93-6.63-19.27-12.81-3.4,6.18-9.58,11.05-19.22,12.81l-3.8-7.6c13.38-2.27,18.14-10.83,18.14-17.69V405h9.81v3.74c0,7,4.59,15.42,18.14,17.69Z" transform="translate(-180.36 -335.1)"/><path class="cls-1" d="M344.32,405.51c0,14.17-5.21,23.58-19.78,29.65l-4.31-6.46c4.93-1.93,8.39-4.14,10.77-6.8l-8.73,1-1.08-7.09,13.43-.57a11.45,11.45,0,0,0,.57-2.49h-12v-7.2ZM330,435.1h36.68v19.78H330Zm9,12.7H357.7v-5.61H339Zm27.66-45.58v31H358v-11.9h-3.12v11.56h-8.5V403.24h8.5v10.83H358V402.22Z" transform="translate(-180.36 -335.1)"/><path class="cls-1" d="M415.7,442.24v7.37H367.57v-7.37Zm-38-28.63H371v-7.2h41.1v7.2h-6.69v14.62h6.46v7.2H371.31v-7.2h6.35Zm18.59,0h-9.47v14.62h9.47Z" transform="translate(-180.36 -335.1)"/></svg>