<?xml version="1.0" encoding="UTF-8"?>
<svg width="144px" height="27px" viewBox="0 0 144 27" version="1.1" xmlns="http://www.w3.org/2000/svg" xmlns:xlink="http://www.w3.org/1999/xlink">
    <!-- Generator: Sketch 50.2 (55047) - http://www.bohemiancoding.com/sketch -->
    <title>logo_edu</title>
    <desc>Created with Sketch.</desc>
    <defs>
        <polygon id="path-1" points="0 0.0924371353 15.6243652 0.0924371353 15.6243652 21.3155459 0 21.3155459"></polygon>
        <polygon id="path-3" points="0.142591304 0.0586960212 14.4266087 0.0586960212 14.4266087 15.655513 0.142591304 15.655513"></polygon>
    </defs>
    <g id="Main" stroke="none" stroke-width="1" fill="none" fill-rule="evenodd">
        <g id="EDU-main_1440px" transform="translate(-270.000000, -17.000000)">
            <g id="GNB">
                <g id="Group" transform="translate(270.000000, 13.000000)">
                    <g id="logo_edu" transform="translate(0.000000, 4.000000)">
                        <g id="Group-3" transform="translate(0.000000, 5.595462)">
                            <mask id="mask-2" fill="white">
                                <use xlink:href="#path-1"></use>
                            </mask>
                            <g id="Clip-2"></g>
                            <path d="M10.9845391,13.3081401 C11.9163652,12.7788881 12.6426261,12.0458377 13.164887,11.1079491 C13.6861043,10.1705804 13.9469739,9.09803926 13.9469739,7.89084562 C13.9469739,6.68417188 13.6861043,5.60695172 13.164887,4.66022493 C12.6426261,3.71297825 11.9163652,2.97524881 10.9845391,2.44547692 C10.052713,1.91674483 8.99984348,1.65211883 7.82593043,1.65211883 C6.63323478,1.65211883 5.57149565,1.91674483 4.63966957,2.44547692 C3.70784348,2.97524881 2.98106087,3.71297825 2.45984348,4.66022493 C1.93758261,5.60695172 1.67723478,6.68417188 1.67723478,7.89084562 C1.67723478,9.09803926 1.93758261,10.1705804 2.45984348,11.1079491 C2.98106087,12.0458377 3.70784348,12.7788881 4.63966957,13.3081401 C5.57149565,13.837392 6.63323478,14.1014981 7.82593043,14.1014981 C8.99984348,14.1014981 10.052713,13.837392 10.9845391,13.3081401 M11.864713,1.09531247 C13.0480174,1.76337613 13.9704522,2.68722759 14.6320174,3.86634695 C15.2930609,5.04546631 15.6243652,6.38679257 15.6243652,7.89084562 L15.6243652,13.3497316 C15.6243652,14.8355883 15.288887,16.1857528 14.6184522,17.4023045 C13.9469739,18.6183363 13.0250609,19.5749411 11.8511478,20.2715989 C10.6772348,20.967217 9.37288696,21.3155459 7.93810435,21.3155459 C6.46575652,21.3155459 5.17497391,21.0415618 4.0668,20.4935936 C2.95758261,19.9461454 2.03045217,19.1990578 1.28593043,18.2518111 C1.13671304,18.0656891 1.06210435,17.880087 1.06210435,17.6950048 C1.06210435,17.4719703 1.15497391,17.2952064 1.34175652,17.1657528 C1.49045217,17.0539756 1.65845217,16.9988668 1.84471304,16.9988668 C2.14262609,16.9988668 2.38471304,17.1189623 2.57149565,17.360713 C3.18610435,18.1031215 3.94523478,18.6880021 4.8494087,19.1153549 C5.75306087,19.5421878 6.78245217,19.7558642 7.93810435,19.7558642 C9.07445217,19.7558642 10.0996696,19.4772011 11.012713,18.9203947 C11.9252348,18.3635883 12.6426261,17.5972647 13.164887,16.6224637 C13.6861043,15.6476626 13.9469739,14.5569252 13.9469739,13.3497316 L13.9469739,12.1243416 C13.4069739,13.220278 12.600887,14.0838218 11.5297565,14.7144531 C10.4581043,15.3461241 9.22366957,15.6616997 7.82593043,15.6616997 C6.31653913,15.6616997 4.97045217,15.332087 3.78714783,14.6728615 C2.60384348,14.0136361 1.67723478,13.0949836 1.00627826,11.9153443 C0.335321739,10.7367448 -0.000156521739,9.39489867 -0.000156521739,7.89084562 C-0.000156521739,6.40602865 0.344191304,5.06834164 1.03393043,3.87986419 C1.72314783,2.69242653 2.66436522,1.76337613 3.85706087,1.09531247 C5.04975652,0.426728912 6.37288696,0.0924371353 7.82593043,0.0924371353 C9.33532174,0.0924371353 10.6814087,0.426728912 11.864713,1.09531247" id="Fill-1" fill="#313338" mask="url(#mask-2)"></path>
                        </g>
                        <path d="M29.1361043,18.884834 C30.0694957,18.345704 30.8020174,17.6012159 31.3341913,16.6529294 C31.8658435,15.7041231 32.1319304,14.6440594 32.1319304,13.4716987 C32.1319304,12.3003777 31.8658435,11.2397942 31.3341913,10.2915077 C30.8020174,9.34270133 30.0694957,8.59405411 29.1361043,8.04504615 C28.2021913,7.49655809 27.1571478,7.22205411 25.9999304,7.22205411 C24.8421913,7.22205411 23.7971478,7.49655809 22.8637565,8.04504615 C21.9303652,8.59405411 21.1931478,9.34270133 20.6515826,10.2915077 C20.1100174,11.2397942 19.8402783,12.3003777 19.8402783,13.4716987 C19.8402783,14.6440594 20.1100174,15.7041231 20.6515826,16.6529294 C21.1931478,17.6012159 21.9303652,18.345704 22.8637565,18.884834 C23.7971478,19.4244838 24.8421913,19.6937889 25.9999304,19.6937889 C27.1571478,19.6937889 28.2021913,19.4244838 29.1361043,18.884834 M21.9955826,20.2381178 C20.8008,19.5591363 19.862713,18.624887 19.1818435,17.4338101 C18.4999304,16.2437729 18.1597565,14.9227225 18.1597565,13.4716987 C18.1597565,12.0029984 18.4999304,10.6725899 19.1818435,9.48203289 C19.862713,8.29199576 20.8008,7.35722653 21.9955826,6.67824509 C23.1903652,5.99926366 24.5249739,5.65977294 25.9999304,5.65977294 C27.4555826,5.65977294 28.7808,5.99926366 29.9761043,6.67824509 C31.1698435,7.35722653 32.1084522,8.29199576 32.7898435,9.48203289 C33.4712348,10.6725899 33.8119304,12.0029984 33.8119304,13.4716987 C33.8119304,14.9227225 33.4712348,16.2437729 32.7898435,17.4338101 C32.1084522,18.624887 31.1698435,19.5591363 29.9761043,20.2381178 C28.7808,20.9170992 27.4555826,21.2565899 25.9999304,21.2565899 C24.5249739,21.2565899 23.1903652,20.9170992 21.9955826,20.2381178" id="Fill-4" fill="#313338"></path>
                        <path d="M47.3233565,18.884834 C48.2562261,18.345704 48.9892696,17.6012159 49.5214435,16.6529294 C50.0530957,15.7041231 50.3186609,14.6440594 50.3186609,13.4716987 C50.3186609,12.3003777 50.0530957,11.2397942 49.5214435,10.2915077 C48.9892696,9.34270133 48.2562261,8.59405411 47.3233565,8.04504615 C46.3894435,7.49655809 45.3444,7.22205411 44.1871826,7.22205411 C43.0294435,7.22205411 41.9844,7.49655809 41.0510087,8.04504615 C40.1170957,8.59405411 39.3798783,9.34270133 38.8388348,10.2915077 C38.2972696,11.2397942 38.0275304,12.3003777 38.0275304,13.4716987 C38.0275304,14.6440594 38.2972696,15.7041231 38.8388348,16.6529294 C39.3798783,17.6012159 40.1170957,18.345704 41.0510087,18.884834 C41.9844,19.4244838 43.0294435,19.6937889 44.1871826,19.6937889 C45.3444,19.6937889 46.3894435,19.4244838 47.3233565,18.884834 M40.1828348,20.2381178 C38.9880522,19.5591363 38.0499652,18.624887 37.3690957,17.4338101 C36.6871826,16.2437729 36.3470087,14.9227225 36.3470087,13.4716987 C36.3470087,12.0029984 36.6871826,10.6725899 37.3690957,9.48203289 C38.0499652,8.29199576 38.9880522,7.35722653 40.1828348,6.67824509 C41.3776174,5.99926366 42.7122261,5.65977294 44.1871826,5.65977294 C45.6428348,5.65977294 46.9680522,5.99926366 48.1633565,6.67824509 C49.3570957,7.35722653 50.2957043,8.29199576 50.9770957,9.48203289 C51.658487,10.6725899 51.9991826,12.0029984 51.9991826,13.4716987 C51.9991826,14.9227225 51.658487,16.2437729 50.9770957,17.4338101 C50.2957043,18.624887 49.3570957,19.5591363 48.1633565,20.2381178 C46.9680522,20.9170992 45.6428348,21.2565899 44.1871826,21.2565899 C42.7122261,21.2565899 41.3776174,20.9170992 40.1828348,20.2381178" id="Fill-6" fill="#313338"></path>
                        <path d="M63.3571304,6.57894536 C63.3571304,6.06736976 62.912087,5.6550939 62.4028696,5.7143618 C61.6531304,5.80118408 60.9336522,5.99198515 60.2543478,6.28416552 C59.2912174,6.69800106 58.4376522,7.27196393 57.7176522,7.98941751 C56.9966087,8.70791088 56.4206087,9.56365623 56.0058261,10.5322186 C55.5905217,11.5018207 55.3797391,12.5468074 55.3797391,13.6391045 L55.3797391,20.4065634 C55.3797391,20.8760276 55.7611304,21.25607 56.2327826,21.25607 C56.7033913,21.25607 57.0853043,20.8760276 57.0853043,20.4065634 L57.0853043,13.6391045 C57.0853043,12.7854387 57.2522609,11.965566 57.5804348,11.2028817 C57.9096522,10.4381178 58.364087,9.76901432 58.9312174,9.21376764 C59.4978261,8.65852095 60.1698261,8.21089231 60.9273913,7.88335915 C61.4501739,7.65668541 62.0016522,7.50747586 62.5750435,7.43677029 C63.0174783,7.38270133 63.3571304,7.02293475 63.3571304,6.57894536" id="Fill-8" fill="#313338"></path>
                        <path d="M88.295687,11.3986218 C88.295687,10.5829082 88.1584696,9.81710451 87.887687,9.12252626 L87.8856,9.11784721 C87.6111652,8.41651034 87.2047304,7.79991618 86.6782957,7.2873008 C86.1544696,6.77676499 85.5174261,6.37332732 84.7859478,6.08842546 C84.0565565,5.80352361 83.2389913,5.659513 82.355687,5.659513 C81.0523826,5.659513 79.907687,5.96521061 78.9523826,6.56776764 C78.2209043,7.02839363 77.635513,7.62107268 77.2113391,8.33020796 C76.7777739,7.62263236 76.1939478,7.03047321 75.4744696,6.56932732 C74.5322087,5.9657305 73.3953391,5.659513 72.095687,5.659513 C71.2149913,5.659513 70.399513,5.80352361 69.6727304,6.08842546 C68.9417739,6.37384721 68.3068174,6.77728488 67.7850783,7.28782069 C67.2607304,7.80043607 66.8558609,8.41651034 66.583513,9.11836711 C66.3111652,9.81450504 66.1739478,10.5818684 66.1739478,11.3986218 L66.1739478,20.4094228 C66.1739478,20.8768074 66.5548174,21.25633 67.0238609,21.25633 L67.0296,21.25633 C67.499687,21.25633 67.8800348,20.8768074 67.8800348,20.4094228 L67.8800348,11.3986218 C67.8800348,10.7903459 67.9781217,10.2231416 68.1706435,9.71312573 C68.3610783,9.20726897 68.6386435,8.76483926 68.9960348,8.39727427 C69.3518609,8.03022918 69.7948174,7.73960849 70.3118609,7.53217082 C70.8325565,7.32369337 71.4362087,7.21763501 72.1056,7.21763501 C72.727513,7.21763501 73.3066435,7.32369337 73.8283826,7.53269072 C74.3480348,7.74064828 74.7993391,8.02918939 75.1687304,8.38947586 C75.5370783,8.74924244 75.8313391,9.19323183 76.0431652,9.70792679 C76.2565565,10.226261 76.3645565,10.7955448 76.3645565,11.3986218 L76.3645565,20.4094228 C76.3645565,20.8768074 76.7449043,21.25633 77.2149913,21.25633 L77.2202087,21.25633 C77.6897739,21.25633 78.0706435,20.8768074 78.0706435,20.4094228 L78.0706435,11.3986218 C78.0706435,10.7950249 78.1791652,10.226261 78.3936,9.70844668 C78.6043826,9.19427162 78.8991652,8.75028223 79.2701217,8.38999576 C79.6410783,8.02970928 80.0939478,7.74064828 80.6162087,7.53269072 C81.1400348,7.32369337 81.7222957,7.21763501 82.3473391,7.21763501 C83.0193391,7.21763501 83.6250783,7.32369337 84.1478609,7.53269072 C84.6680348,7.74064828 85.1125565,8.03126897 85.4694261,8.39779416 C85.8283826,8.76691883 86.1080348,9.20934854 86.2979478,9.71312573 C86.491513,10.2247013 86.5896,10.7919056 86.5896,11.3986218 L86.5948174,20.4099427 C86.5953391,20.8773273 86.9762087,21.25633 87.4452522,21.25633 C87.9153391,21.25633 88.295687,20.8768074 88.295687,20.4094228 L88.295687,11.3986218 Z" id="Fill-10" fill="#313338"></path>
                        <path d="M97.8561391,8.86211141 C96.9196174,9.73969231 96.3477913,10.8969761 96.1422261,12.3344828 L106.427791,12.3344828 C106.277009,10.8969761 105.752661,9.73969231 104.853704,8.86211141 C103.954226,7.9850504 102.801704,7.54625995 101.397183,7.54625995 C99.9738783,7.54625995 98.7931826,7.9850504 97.8561391,8.86211141 M105.078574,6.57977719 C106.146574,7.22444562 106.975617,8.11554377 107.565183,9.25411141 C108.15527,10.392679 108.450574,11.6903342 108.450574,13.1460371 C108.450574,13.4449761 108.356661,13.6830875 108.169878,13.8603714 C107.982052,14.0381751 107.737878,14.126557 107.4384,14.126557 L96.0858783,14.126557 C96.2361391,15.6571247 96.8356174,16.8986313 97.8848348,17.850557 C98.9335304,18.8024828 100.244661,19.2787056 101.818748,19.2787056 C102.493357,19.2787056 103.171617,19.1622493 103.856139,18.928817 C104.539617,18.6953846 105.087443,18.4016446 105.499617,18.046557 C105.742748,17.860435 105.996313,17.7668541 106.258226,17.7668541 C106.464313,17.7668541 106.6704,17.8411989 106.876487,17.9909284 C107.120139,18.2144828 107.241704,18.4666313 107.241704,18.7468541 C107.241704,18.9891247 107.138922,19.2043607 106.932835,19.3904828 C106.314574,19.913496 105.527791,20.3476074 104.572487,20.692817 C103.617183,21.0385464 102.698922,21.2106313 101.818748,21.2106313 C100.319791,21.2106313 98.980487,20.8794589 97.8008348,20.2165942 C96.6201391,19.5542493 95.6966609,18.6303979 95.032487,17.4445199 C94.3672696,16.2596817 94.0349217,14.9199151 94.0349217,13.4262599 C94.0349217,11.9144085 94.3479652,10.5658037 94.9756174,9.38044562 C95.6037913,8.19508753 96.4745739,7.27071618 97.5895304,6.60785146 C98.7039652,5.94602653 99.9738783,5.61381432 101.397183,5.61381432 C102.782922,5.61381432 104.010574,5.93614854 105.078574,6.57977719" id="Fill-12" fill="#3593D3"></path>
                        <path d="M118.392991,19.0899321 C115.268817,19.0899321 112.735774,16.5663671 112.735774,13.4527225 C112.735774,10.3401178 115.268817,7.81603289 118.392991,7.81603289 C121.516643,7.81603289 124.049687,10.3401178 124.049687,13.4527225 C124.049687,16.5663671 121.516643,19.0899321 118.392991,19.0899321 M125.134383,-5.19893899e-05 C124.534904,-5.19893899e-05 124.049687,0.483969231 124.049687,1.08080743 L124.049687,8.07390027 C122.624296,6.58596393 120.619774,5.65431406 118.392991,5.65431406 C114.070904,5.65431406 110.566904,9.14592149 110.566904,13.4527225 C110.566904,17.7600435 114.070904,21.251131 118.392991,21.251131 C122.715078,21.251131 126.219078,17.7600435 126.219078,13.4527225 L126.219078,1.08080743 C126.219078,0.483969231 125.732817,-5.19893899e-05 125.134383,-5.19893899e-05" id="Fill-14" fill="#3593D3"></path>
                        <g id="Group-18" transform="translate(129.391304, 5.595462)">
                            <mask id="mask-4" fill="white">
                                <use xlink:href="#path-3"></use>
                            </mask>
                            <g id="Clip-17"></g>
                            <path d="M14.4267652,8.53920531 L14.4267652,1.14007533 C14.4267652,0.542717241 13.9410261,0.0586960212 13.3420696,0.0586960212 C12.7425913,0.0586960212 12.2573739,0.542717241 12.2573739,1.14007533 L12.2573739,8.53920531 C12.2573739,11.2759268 10.031113,13.4943141 7.28467826,13.4943141 C4.53824348,13.4943141 2.31198261,11.2759268 2.31198261,8.53920531 L2.31198261,1.14007533 C2.31198261,0.542717241 1.82676522,0.0586960212 1.22728696,0.0586960212 C0.628330435,0.0586960212 0.142591304,0.542717241 0.142591304,1.14007533 L0.142591304,8.53920531 C0.142591304,10.5423565 0.975808696,12.3484679 2.31198261,13.641444 C3.59806957,14.8865899 5.3505913,15.655513 7.28467826,15.655513 C9.21928696,15.655513 10.971287,14.8865899 12.2573739,13.641444 C13.5935478,12.3484679 14.4267652,10.5423565 14.4267652,8.5397252 L14.4267652,8.53920531 Z" id="Fill-16" fill="#3593D3" mask="url(#mask-4)"></path>
                        </g>
                    </g>
                </g>
            </g>
        </g>
    </g>
</svg>